<svg width="20" height="20" viewBox="0 0 20 20" fill="none" xmlns="http://www.w3.org/2000/svg">
<path d="M13.6384 5.34644C12.0634 5.34644 11.3978 6.098 10.3009 6.098C9.17628 6.098 8.31846 5.3519 6.95362 5.3519C5.61768 5.3519 4.19307 6.16753 3.28839 7.55698C2.01807 9.51636 2.2337 13.2066 4.29112 16.3503C5.02706 17.4757 6.00987 18.7378 7.29893 18.7515H7.32237C8.44268 18.7515 8.77549 18.0179 10.3173 18.0093H10.3407C11.8595 18.0093 12.1642 18.7472 13.2798 18.7472H13.3032C14.5923 18.7335 15.6278 17.3351 16.3638 16.214C16.8935 15.4078 17.0903 15.0031 17.4966 14.091C14.5204 12.9613 14.0423 8.74214 16.9857 7.12456C16.0872 5.99956 14.8247 5.348 13.6345 5.348L13.6384 5.34644Z" fill="black"/>
<path d="M13.2924 1.25015C12.3545 1.31385 11.2603 1.91097 10.6194 2.69058C10.0379 3.39712 9.55959 4.44521 9.74717 5.46164H9.8222C10.821 5.46164 11.8433 4.86022 12.4405 4.08959C13.0157 3.35609 13.4518 2.3166 13.2924 1.25015Z" fill="black"/>
</svg>
