<svg width="14" height="10" viewBox="0 0 14 10" fill="none" xmlns="http://www.w3.org/2000/svg">
<path d="M5.13058 10C5.01102 10.0001 4.89269 9.97697 4.78289 9.93191C4.6731 9.88685 4.57415 9.82086 4.49215 9.73799L0.237332 5.42183C0.0784522 5.26084 -0.00676728 5.04634 0.000420419 4.8255C0.00760812 4.60467 0.106614 4.3956 0.275658 4.24429C0.444703 4.09298 0.669938 4.01182 0.901815 4.01867C1.13369 4.02551 1.35322 4.1198 1.5121 4.28079L5.12218 7.93993L12.4789 0.27165C12.5563 0.190818 12.6497 0.125303 12.7537 0.078843C12.8577 0.0323835 12.9703 0.00589008 13.0851 0.000875532C13.1998 -0.00413901 13.3145 0.0124235 13.4226 0.0496174C13.5306 0.0868113 13.6299 0.143908 13.7148 0.217648C13.7996 0.291388 13.8684 0.380327 13.9172 0.479386C13.966 0.578446 13.9938 0.685687 13.9991 0.794985C14.0043 0.904284 13.987 1.0135 13.9479 1.1164C13.9088 1.21929 13.8489 1.31386 13.7715 1.39469L5.77531 9.72799C5.69431 9.81277 5.59579 9.88069 5.48592 9.9275C5.37606 9.9743 5.25723 9.99899 5.13688 10H5.13058Z" fill="#50CD89"/>
</svg>
