<svg width="163" height="163" viewBox="0 0 163 163" fill="none" xmlns="http://www.w3.org/2000/svg">
<g opacity="0.05">
<path d="M17.7593 17.1732C-4.63101 40.0702 -7.1744 127.077 17.7593 147.429C29.9125 157.557 55.2992 162.645 80.8113 162.692H81.525C107.039 162.645 132.552 157.557 144.96 147.429C169.892 127.077 167.349 40.0702 144.96 17.1732C133.766 5.72385 107.563 0 81.3588 0C55.1558 0 28.9528 5.72385 17.7593 17.1732Z" fill="#EF4130"/>
</g>
<path d="M32.0765 31.7277C14.8532 49.3408 12.8968 116.269 32.0765 131.924C41.4251 139.715 60.9533 143.629 80.578 143.665H81.127C100.753 143.629 120.379 139.715 129.923 131.924C149.102 116.269 147.145 49.3408 129.923 31.7277C121.313 22.9205 101.157 18.5176 80.9992 18.5176C60.8431 18.5176 40.6869 22.9205 32.0765 31.7277Z" fill="#EF4130"/>
<g opacity="0.16">
<path d="M130.042 32.7835C142.732 67.0045 132.12 104.469 105.36 124.18C73.3777 147.738 34.8415 133.777 32.0816 132.724C31.9212 132.6 31.7808 132.491 31.668 132.398C12.4795 116.744 14.4347 49.8163 31.668 32.207C48.8888 14.5977 112.282 14.5977 129.516 32.207C129.704 32.395 129.879 32.583 130.042 32.7835Z" fill="white"/>
</g>
<g clip-path="url(#clip0_885_444)">
<mask id="mask0_885_444" style="mask-type:luminance" maskUnits="userSpaceOnUse" x="52" y="52" width="58" height="58">
<path d="M110 52H52V110H110V52Z" fill="white"/>
</mask>
<g mask="url(#mask0_885_444)">
<path d="M74.4868 67.9183L74.8962 65.4806C75.1939 63.7128 75.4172 62.3916 78.562 62.3916H83.4374C86.5822 62.3916 86.8241 63.7872 87.1033 65.4992L87.5126 67.9183" stroke="white" stroke-width="4.8125" stroke-linecap="round" stroke-linejoin="round"/>
<path d="M97.7474 69.7976C91.5508 69.1835 85.3171 68.8672 79.1019 68.8672C75.4174 68.8672 71.733 69.0533 68.0485 69.4254L64.2524 69.7976" stroke="white" stroke-width="4.8125" stroke-linecap="round" stroke-linejoin="round"/>
<path d="M93.7468 75.6777L92.5373 94.4163C92.3326 97.3378 92.1651 99.608 86.9734 99.608H75.0268C69.8351 99.608 69.6676 97.3378 69.463 94.4163L68.2534 75.6777" stroke="white" stroke-width="4.8125" stroke-linecap="round" stroke-linejoin="round"/>
<path d="M77.8926 89.374H84.0891" stroke="white" stroke-width="4.8125" stroke-linecap="round" stroke-linejoin="round"/>
<path d="M76.3477 81.9307H85.6518" stroke="white" stroke-width="4.8125" stroke-linecap="round" stroke-linejoin="round"/>
</g>
</g>
<defs>
<clipPath id="clip0_885_444">
<rect width="58" height="58" fill="white" transform="translate(52 52)"/>
</clipPath>
</defs>
</svg>
