<svg width="20" height="20" viewBox="0 0 20 20" fill="none" xmlns="http://www.w3.org/2000/svg">
<path fill-rule="evenodd" clip-rule="evenodd" d="M0.75 10C0.75 16.937 3.063 19.25 10 19.25C16.937 19.25 19.25 16.937 19.25 10C19.25 3.063 16.937 0.75 10 0.75C3.063 0.75 0.75 3.063 0.75 10Z" stroke="#737791" stroke-width="1.5" stroke-linecap="round" stroke-linejoin="round"/>
<path fill-rule="evenodd" clip-rule="evenodd" d="M8.59866 6.78395C8.59866 7.75695 7.81066 8.54495 6.83766 8.54495C5.86566 8.54495 5.07666 7.75695 5.07666 6.78395C5.07666 5.81095 5.86566 5.02295 6.83766 5.02295C7.81066 5.02295 8.59866 5.81095 8.59866 6.78395Z" stroke="#737791" stroke-width="1.5" stroke-linecap="round" stroke-linejoin="round"/>
<path d="M19.1203 12.6667C18.2393 11.7607 16.9933 9.92969 14.7043 9.92969C12.4153 9.92969 12.3653 13.9677 10.0293 13.9677C7.69231 13.9677 6.75131 12.5967 5.22831 13.3127C3.70631 14.0277 2.46631 16.8737 2.46631 16.8737" stroke="#737791" stroke-width="1.5" stroke-linecap="round" stroke-linejoin="round"/>
</svg>
