<svg width="29" height="29" viewBox="0 0 29 29" fill="none" xmlns="http://www.w3.org/2000/svg">
              <path d="M26.547 21.7503V22.9587C26.547 24.9524 26.547 26.5837 22.922 26.5837H6.00537C2.38037 26.5837 2.38037 24.9524 2.38037 22.9587V21.7503C2.38037 21.0857 2.92412 20.542 3.5887 20.542H25.3387C26.0033 20.542 26.547 21.0857 26.547 21.7503Z" fill="white" />
              <path d="M25.0366 15.7087V20.542H3.95117V15.7087C3.95117 11.0687 7.22576 7.18991 11.5878 6.25949C12.2403 6.11449 12.917 6.04199 13.6178 6.04199H15.3699C16.0708 6.04199 16.7595 6.11449 17.412 6.25949C21.7741 7.20199 25.0366 11.0687 25.0366 15.7087Z" fill="white" />
              <path d="M17.5209 5.43783C17.5209 5.72783 17.4847 5.99366 17.4122 6.25949C16.7597 6.11449 16.0709 6.04199 15.3701 6.04199H13.618C12.9172 6.04199 12.2405 6.11449 11.588 6.25949C11.5155 5.99366 11.4792 5.72783 11.4792 5.43783C11.4792 3.77033 12.8326 2.41699 14.5001 2.41699C16.1676 2.41699 17.5209 3.77033 17.5209 5.43783Z" fill="white" />
              <path d="M18.125 14.1982H10.875C10.3796 14.1982 9.96875 13.7874 9.96875 13.292C9.96875 12.7966 10.3796 12.3857 10.875 12.3857H18.125C18.6204 12.3857 19.0312 12.7966 19.0312 13.292C19.0312 13.7874 18.6204 14.1982 18.125 14.1982Z" fill="#FFCC3F" />
            </svg>