<svg width="32" height="32" viewBox="0 0 32 32" fill="none" xmlns="http://www.w3.org/2000/svg">
<path d="M13.9866 2.97272L7.3333 5.47939C5.79996 6.05272 4.54663 7.86605 4.54663 9.49272V19.3994C4.54663 20.9727 5.58663 23.0394 6.8533 23.9861L12.5866 28.2661C14.4666 29.6794 17.56 29.6794 19.44 28.2661L25.1733 23.9861C26.44 23.0394 27.48 20.9727 27.48 19.3994V9.49272C27.48 7.85272 26.2266 6.03939 24.6933 5.46605L18.04 2.97272C16.9066 2.55939 15.0933 2.55939 13.9866 2.97272Z" stroke="#23282E" stroke-width="1.8" stroke-linecap="round" stroke-linejoin="round"/>
<path d="M15.9999 16.6667C17.4727 16.6667 18.6666 15.4728 18.6666 14C18.6666 12.5273 17.4727 11.3334 15.9999 11.3334C14.5272 11.3334 13.3333 12.5273 13.3333 14C13.3333 15.4728 14.5272 16.6667 15.9999 16.6667Z" stroke="#23282E" stroke-width="1.5" stroke-miterlimit="10" stroke-linecap="round" stroke-linejoin="round"/>
<path d="M16 16.6667V20.6667" stroke="#23282E" stroke-width="1.5" stroke-miterlimit="10" stroke-linecap="round" stroke-linejoin="round"/>
</svg>
