<svg width="21" height="27" viewBox="0 0 21 27" fill="none" xmlns="http://www.w3.org/2000/svg">
<path d="M20 6.06367V22.4546C20 24.6637 18.2091 26.4546 16 26.4546H4C1.79086 26.4546 0 24.6637 0 22.4546V5C0 2.79086 1.79086 1 4 1H14.2245L20 6.06367Z" fill="#EC1D23"/>
<path d="M13.3814 18.1606C12.7161 18.1606 11.8833 18.2714 11.6109 18.3104C10.4834 17.1865 10.1626 16.5476 10.0904 16.3773C10.1882 16.1374 10.5284 15.2264 10.5768 14.0562C10.6006 13.4704 10.471 13.0326 10.1913 12.7551C9.91218 12.4781 9.57428 12.4565 9.47739 12.4565C9.13764 12.4565 8.56769 12.6205 8.56769 13.7187C8.56769 14.6716 9.0331 15.6827 9.16176 15.9439C8.48394 17.8278 7.75622 19.1175 7.60169 19.3827C4.87803 20.3615 4.66504 21.308 4.66504 21.5762C4.66504 22.0583 5.02468 22.346 5.62708 22.346C7.09065 22.346 8.42627 20.0006 8.6471 19.5933C9.68659 19.1979 11.0779 18.953 11.4316 18.8946C12.4461 19.8171 13.6194 20.0632 14.1066 20.0632C14.4732 20.0632 15.3317 20.0632 15.3317 19.2207C15.3318 18.4382 14.2812 18.1606 13.3814 18.1606ZM13.3109 18.7138C14.1015 18.7138 14.3104 18.9633 14.3104 19.0953C14.3104 19.1781 14.2775 19.4482 13.8537 19.4482C13.4737 19.4482 12.8177 19.2386 12.1722 18.7838C12.4414 18.75 12.8397 18.7138 13.3109 18.7138ZM9.43589 12.9927C9.50798 12.9927 9.55543 13.0148 9.59455 13.0666C9.82192 13.3678 9.63859 14.3518 9.41545 15.1218C9.20005 14.4615 9.0384 13.4484 9.26584 13.092C9.3103 13.0224 9.36112 12.9927 9.43589 12.9927ZM9.05196 18.8868C9.33817 18.3348 9.65896 17.5305 9.83369 17.0755C10.1834 17.6342 10.6537 18.1529 10.9257 18.4341C10.0788 18.6045 9.43799 18.7748 9.05196 18.8868ZM5.23358 21.6499C5.21472 21.6285 5.21193 21.5835 5.22614 21.5295C5.25594 21.4163 5.48366 20.8551 7.13071 20.1518C6.89487 20.5064 6.52618 21.0131 6.12115 21.3916C5.83604 21.6463 5.61403 21.7755 5.46129 21.7755C5.40665 21.7755 5.33137 21.7612 5.23358 21.6499Z" fill="white"/>
<g filter="url(#filter0_d_137_1237)">
<path d="M19.9998 6.06367H15.2244C14.6721 6.06367 14.2244 5.61595 14.2244 5.06367V1L19.9998 6.06367Z" fill="#EC1D23"/>
</g>
<defs>
<filter id="filter0_d_137_1237" x="11.2244" y="0" width="9.77539" height="9.06348" filterUnits="userSpaceOnUse" color-interpolation-filters="sRGB">
<feFlood flood-opacity="0" result="BackgroundImageFix"/>
<feColorMatrix in="SourceAlpha" type="matrix" values="0 0 0 0 0 0 0 0 0 0 0 0 0 0 0 0 0 0 127 0" result="hardAlpha"/>
<feOffset dx="-1" dy="1"/>
<feGaussianBlur stdDeviation="1"/>
<feComposite in2="hardAlpha" operator="out"/>
<feColorMatrix type="matrix" values="0 0 0 0 0 0 0 0 0 0 0 0 0 0 0 0 0 0 0.2 0"/>
<feBlend mode="normal" in2="BackgroundImageFix" result="effect1_dropShadow_137_1237"/>
<feBlend mode="normal" in="SourceGraphic" in2="effect1_dropShadow_137_1237" result="shape"/>
</filter>
</defs>
</svg>
