<svg width="148" height="56" viewBox="0 0 148 56" fill="none" xmlns="http://www.w3.org/2000/svg">
<path d="M85.016 33.336H90.536V36H81.656V19.248H85.016V33.336ZM100.448 36.168C98.8796 36.168 97.4396 35.8 96.1276 35.064C94.8156 34.328 93.7756 33.312 93.0076 32.016C92.2396 30.704 91.8556 29.224 91.8556 27.576C91.8556 25.944 92.2396 24.48 93.0076 23.184C93.7756 21.872 94.8156 20.848 96.1276 20.112C97.4396 19.376 98.8796 19.008 100.448 19.008C102.032 19.008 103.472 19.376 104.768 20.112C106.08 20.848 107.112 21.872 107.864 23.184C108.632 24.48 109.016 25.944 109.016 27.576C109.016 29.224 108.632 30.704 107.864 32.016C107.112 33.312 106.08 34.328 104.768 35.064C103.456 35.8 102.016 36.168 100.448 36.168ZM100.448 33.168C101.456 33.168 102.344 32.944 103.112 32.496C103.88 32.032 104.48 31.376 104.912 30.528C105.344 29.68 105.56 28.696 105.56 27.576C105.56 26.456 105.344 25.48 104.912 24.648C104.48 23.8 103.88 23.152 103.112 22.704C102.344 22.256 101.456 22.032 100.448 22.032C99.4396 22.032 98.5436 22.256 97.7596 22.704C96.9916 23.152 96.3916 23.8 95.9596 24.648C95.5276 25.48 95.3116 26.456 95.3116 27.576C95.3116 28.696 95.5276 29.68 95.9596 30.528C96.3916 31.376 96.9916 32.032 97.7596 32.496C98.5436 32.944 99.4396 33.168 100.448 33.168ZM123.179 24.288C122.795 23.584 122.267 23.048 121.595 22.68C120.923 22.312 120.139 22.128 119.243 22.128C118.251 22.128 117.371 22.352 116.603 22.8C115.835 23.248 115.235 23.888 114.803 24.72C114.371 25.552 114.155 26.512 114.155 27.6C114.155 28.72 114.371 29.696 114.803 30.528C115.251 31.36 115.867 32 116.651 32.448C117.435 32.896 118.347 33.12 119.387 33.12C120.667 33.12 121.715 32.784 122.531 32.112C123.347 31.424 123.883 30.472 124.139 29.256H118.379V26.688H127.451V29.616C127.227 30.784 126.747 31.864 126.011 32.856C125.275 33.848 124.323 34.648 123.155 35.256C122.003 35.848 120.707 36.144 119.267 36.144C117.651 36.144 116.187 35.784 114.875 35.064C113.579 34.328 112.555 33.312 111.803 32.016C111.067 30.72 110.699 29.248 110.699 27.6C110.699 25.952 111.067 24.48 111.803 23.184C112.555 21.872 113.579 20.856 114.875 20.136C116.187 19.4 117.643 19.032 119.243 19.032C121.131 19.032 122.771 19.496 124.163 20.424C125.555 21.336 126.515 22.624 127.043 24.288H123.179ZM137.713 36.168C136.145 36.168 134.705 35.8 133.393 35.064C132.081 34.328 131.041 33.312 130.273 32.016C129.505 30.704 129.121 29.224 129.121 27.576C129.121 25.944 129.505 24.48 130.273 23.184C131.041 21.872 132.081 20.848 133.393 20.112C134.705 19.376 136.145 19.008 137.713 19.008C139.297 19.008 140.737 19.376 142.033 20.112C143.345 20.848 144.377 21.872 145.129 23.184C145.897 24.48 146.281 25.944 146.281 27.576C146.281 29.224 145.897 30.704 145.129 32.016C144.377 33.312 143.345 34.328 142.033 35.064C140.721 35.8 139.281 36.168 137.713 36.168ZM137.713 33.168C138.721 33.168 139.609 32.944 140.377 32.496C141.145 32.032 141.745 31.376 142.177 30.528C142.609 29.68 142.825 28.696 142.825 27.576C142.825 26.456 142.609 25.48 142.177 24.648C141.745 23.8 141.145 23.152 140.377 22.704C139.609 22.256 138.721 22.032 137.713 22.032C136.705 22.032 135.809 22.256 135.025 22.704C134.257 23.152 133.657 23.8 133.225 24.648C132.793 25.48 132.577 26.456 132.577 27.576C132.577 28.696 132.793 29.68 133.225 30.528C133.657 31.376 134.257 32.032 135.025 32.496C135.809 32.944 136.705 33.168 137.713 33.168Z" fill="#23282E"/>
<rect width="56" height="56" rx="8" fill="#23282E"/>
<path d="M22.3743 17.6267C21.2422 18.7798 21.2422 20.6456 22.3952 21.7987L24.911 24.3145C27.28 26.6835 27.28 30.541 24.911 32.91L20.2988 28.2978C19.1143 27.1133 18.5168 25.5514 18.5168 24C18.5168 22.4486 19.1143 20.8867 20.2988 19.7022L22.3428 17.6581C22.3533 17.6477 22.3638 17.6372 22.3743 17.6267Z" fill="#23282E" stroke="white" stroke-width="2" stroke-miterlimit="10"/>
<path d="M24.3867 23.7893L22.3951 21.7977C21.242 20.6446 21.2315 18.7892 22.3741 17.6257C23.5062 16.5145 25.3092 16.5355 26.4308 17.6571C26.9968 18.2232 27.2799 18.9674 27.2799 19.7012C27.2799 20.4349 26.9968 21.1792 26.4308 21.7452L25.9591 22.2169" fill="#23282E"/>
<path d="M24.3867 23.7893L22.3951 21.7977C21.242 20.6446 21.2315 18.7892 22.3741 17.6257C23.5062 16.5145 25.3092 16.5355 26.4308 17.6571C26.9968 18.2232 27.2799 18.9674 27.2799 19.7012C27.2799 20.4349 26.9968 21.1792 26.4308 21.7452L25.9591 22.2169" stroke="white" stroke-width="2" stroke-miterlimit="10"/>
<path d="M34.2714 38.2245C35.4035 37.0714 35.4035 35.2056 34.2504 34.0525L31.7346 31.5367C29.3656 29.1677 29.3656 25.3102 31.7346 22.9412L36.3469 27.5534C37.5314 28.7379 38.1289 30.2998 38.1289 31.8512C38.1289 33.4026 37.5314 34.9645 36.3469 36.149L34.3028 38.1931C34.2819 38.214 34.2714 38.2245 34.2714 38.2245Z" fill="#23282E" stroke="white" stroke-width="2" stroke-miterlimit="10"/>
<path d="M32.2478 32.071L34.2395 34.0627C35.3925 35.2158 35.403 37.0711 34.2604 38.2347C33.1283 39.3458 31.3254 39.3249 30.2037 38.2032C29.6377 37.6372 29.3547 36.8929 29.3547 36.1592C29.3547 35.4254 29.6377 34.6812 30.2037 34.1151L30.6859 33.6329" fill="#23282E"/>
<path d="M32.2478 32.071L34.2395 34.0627C35.3925 35.2158 35.403 37.0711 34.2604 38.2347C33.1283 39.3458 31.3254 39.3249 30.2037 38.2032C29.6377 37.6372 29.3547 36.8929 29.3547 36.1592C29.3547 35.4254 29.6377 34.6812 30.2037 34.1151L30.6859 33.6329" stroke="white" stroke-width="2" stroke-miterlimit="10"/>
</svg>
