<svg width="32" height="32" viewBox="0 0 32 32" fill="none" xmlns="http://www.w3.org/2000/svg">
<path d="M28.1068 11.44V20.56C28.1068 22.0533 27.3068 23.44 26.0135 24.2L18.0935 28.7733C16.8001 29.52 15.2001 29.52 13.8935 28.7733L5.97346 24.2C4.68013 23.4533 3.88013 22.0666 3.88013 20.56V11.44C3.88013 9.94667 4.68013 8.55995 5.97346 7.79995L13.8935 3.22663C15.1868 2.47996 16.7868 2.47996 18.0935 3.22663L26.0135 7.79995C27.3068 8.55995 28.1068 9.93334 28.1068 11.44Z" stroke="#23282E" stroke-width="2.25" stroke-linecap="round" stroke-linejoin="round"/>
<path d="M16.0024 14.6664C17.7182 14.6664 19.1091 13.2755 19.1091 11.5597C19.1091 9.84397 17.7182 8.45312 16.0024 8.45312C14.2867 8.45312 12.8958 9.84397 12.8958 11.5597C12.8958 13.2755 14.2867 14.6664 16.0024 14.6664Z" stroke="#23282E" stroke-width="1.875" stroke-linecap="round" stroke-linejoin="round"/>
<path d="M21.3334 22.2138C21.3334 19.8138 18.9467 17.8672 16.0001 17.8672C13.0534 17.8672 10.6667 19.8138 10.6667 22.2138" stroke="#23282E" stroke-width="1.875" stroke-linecap="round" stroke-linejoin="round"/>
</svg>
