   <svg width="29" height="29" viewBox="0 0 29 29" fill="none" xmlns="http://www.w3.org/2000/svg">
              <path d="M10.8751 2.41699C7.70925 2.41699 5.1355 4.99074 5.1355 8.15657C5.1355 11.262 7.56425 13.7753 10.7301 13.8841C10.8267 13.872 10.9234 13.872 10.9959 13.8841C11.0201 13.8841 11.0322 13.8841 11.0563 13.8841C11.0684 13.8841 11.0684 13.8841 11.0805 13.8841C14.1738 13.7753 16.6026 11.262 16.6147 8.15657C16.6147 4.99074 14.0409 2.41699 10.8751 2.41699Z" fill="white" />
              <path d="M17.0134 17.0977C13.6422 14.8502 8.14424 14.8502 4.74883 17.0977C3.21424 18.1248 2.36841 19.5144 2.36841 21.0006C2.36841 22.4869 3.21424 23.8644 4.73674 24.8794C6.42841 26.0152 8.65174 26.5832 10.8751 26.5832C13.0984 26.5832 15.3217 26.0152 17.0134 24.8794C18.5359 23.8523 19.3817 22.4748 19.3817 20.9765C19.3697 19.4902 18.5359 18.1127 17.0134 17.0977Z" fill="white" />
              <path d="M24.1546 8.86888C24.3479 11.213 22.6804 13.2672 20.3725 13.5451C20.3604 13.5451 20.3604 13.5451 20.3483 13.5451H20.3121C20.2396 13.5451 20.1671 13.5451 20.1066 13.5693C18.9346 13.6297 17.8591 13.2551 17.0496 12.5664C18.2941 11.4547 19.0071 9.78721 18.8621 7.97471C18.7775 6.99596 18.4391 6.1018 17.9316 5.34055C18.3908 5.11096 18.9225 4.96596 19.4662 4.91763C21.8346 4.71221 23.9491 6.47638 24.1546 8.86888Z" fill="white" />
              <path d="M26.5712 20.0461C26.4745 21.2182 25.7254 22.2332 24.4687 22.9219C23.2604 23.5865 21.7379 23.9007 20.2275 23.8644C21.0975 23.079 21.605 22.1002 21.7016 21.0611C21.8225 19.5627 21.1095 18.1248 19.6837 16.9769C18.8741 16.3365 17.9316 15.829 16.9045 15.4544C19.575 14.6811 22.9341 15.2007 25.0004 16.8682C26.112 17.7623 26.68 18.8861 26.5712 20.0461Z" fill="white" />
            </svg>