<svg width="35" height="12" viewBox="0 0 35 12" fill="none" xmlns="http://www.w3.org/2000/svg">
<path d="M14.8053 6.91992H0V11.9911H14.8053V6.91992Z" fill="#84B740"/>
<path d="M14.8053 0H0V5.07571H14.8053V0Z" fill="#259BD6"/>
<path d="M29.6106 10.9603L29.5447 10.9738C29.3161 11.019 29.2326 11.0371 29.0656 11.0371C28.6787 11.0371 28.2215 10.8337 28.2215 9.87552C28.2215 9.38287 28.3007 8.7275 29.0216 8.7275H29.026C29.1491 8.73654 29.2897 8.7501 29.5535 8.83146L29.6106 8.84954V10.9603ZM29.7293 6.18287L29.6106 6.20547V7.97722L29.5051 7.94558L29.4744 7.93654C29.3557 7.90038 29.0831 7.81903 28.8194 7.81903C27.3775 7.81903 27.0742 8.93993 27.0742 9.88004C27.0742 11.1682 27.7776 11.9094 29.004 11.9094C29.5227 11.9094 29.9052 11.8552 30.292 11.7241C30.6481 11.6066 30.7755 11.4394 30.7755 11.0823V5.99756C30.4327 6.06084 30.0766 6.12411 29.7293 6.18287Z" fill="#0A0A0A"/>
<path d="M33.8968 10.9919L33.8352 11.0099L33.6154 11.0687C33.4088 11.1229 33.2242 11.1546 33.0835 11.1546C32.745 11.1546 32.5428 10.9828 32.5428 10.689C32.5428 10.4992 32.6263 10.1783 33.1802 10.1783H33.8968V10.9919ZM33.3912 7.79639C32.9472 7.79639 32.4901 7.87774 31.923 8.05853L31.5538 8.17153L31.6768 9.03029L32.0373 8.90825C32.4153 8.7817 32.8857 8.70034 33.2374 8.70034C33.3956 8.70034 33.8792 8.70034 33.8792 9.23819V9.47322H33.2066C31.9802 9.47322 31.4131 9.87548 31.4131 10.7388C31.4131 11.4755 31.9362 11.9184 32.8154 11.9184C33.0879 11.9184 33.466 11.8642 33.7913 11.7828L33.8088 11.7783L33.8264 11.7828L33.9363 11.8009C34.2792 11.8642 34.6353 11.9275 34.9825 11.9953V9.17492C34.9825 8.26192 34.4462 7.79639 33.3912 7.79639Z" fill="#0A0A0A"/>
<path d="M25.3557 10.9919L25.2942 11.0099L25.0744 11.0687C24.8678 11.1229 24.6876 11.1546 24.5425 11.1546C24.204 11.1546 24.0018 10.9828 24.0018 10.689C24.0018 10.4992 24.0853 10.1783 24.6348 10.1783H25.3513L25.3557 10.9919ZM24.8546 7.79639C24.4062 7.79639 23.9535 7.87774 23.3864 8.05853L23.0171 8.17153L23.1402 9.03029L23.5007 8.90825C23.8787 8.7817 24.3491 8.70034 24.7008 8.70034C24.859 8.70034 25.3426 8.70034 25.3426 9.23819V9.47322H24.67C23.4435 9.47322 22.8721 9.87548 22.8721 10.7388C22.8721 11.4755 23.3952 11.9184 24.2788 11.9184C24.5513 11.9184 24.9293 11.8642 25.2546 11.7828L25.2722 11.7783L25.2898 11.7828L25.3953 11.8009C25.7426 11.8642 26.0943 11.9275 26.4415 11.9998V9.17944C26.4459 8.2574 25.9096 7.79639 24.8546 7.79639Z" fill="#0A0A0A"/>
<path d="M20.7269 7.80579C20.1686 7.80579 19.707 7.99562 19.5356 8.07698L19.4916 8.09957L19.452 8.06794C19.2147 7.89166 18.8674 7.80127 18.3838 7.80127C17.9574 7.80127 17.5574 7.86455 17.1222 7.99562C16.7486 8.11313 16.6035 8.29844 16.6035 8.64647V11.8691H17.7728V8.89053L17.83 8.87246C18.0673 8.7911 18.208 8.77754 18.3443 8.77754C18.6828 8.77754 18.8542 8.96285 18.8542 9.32443V11.8736H20.0059V9.27472C20.0059 9.12104 19.9752 9.03065 19.9708 9.01257L19.9312 8.93573L20.0103 8.89957C20.1862 8.81822 20.3796 8.77754 20.5818 8.77754C20.8148 8.77754 21.0917 8.87246 21.0917 9.32443V11.8736H22.239V9.20692C22.239 8.26229 21.7467 7.80579 20.7269 7.80579Z" fill="#0A0A0A"/>
<path d="M33.0345 3.30847C32.8631 3.30847 32.5774 3.2904 32.3532 3.2452L32.2872 3.23164V1.49153C32.2872 1.34689 32.2609 1.2565 32.2565 1.24294L32.2213 1.17062L32.296 1.13898C32.3136 1.12994 32.3312 1.12542 32.3532 1.11638L32.3664 1.10734C32.3927 1.09831 32.4191 1.08927 32.4455 1.08023C32.4587 1.07571 32.4675 1.07119 32.4762 1.07119C32.7356 0.99887 32.973 1.00791 33.0785 0.99887H33.0829C33.7994 0.99887 33.8829 1.65424 33.8829 2.14689C33.8785 3.10508 33.417 3.30847 33.0345 3.30847ZM33.0301 0C33.0213 0 33.0082 0 32.9994 0C32.3268 0 31.6366 0.18983 31.3905 0.560452C31.2586 0.741243 31.1839 0.967232 31.1795 1.2339V3.02825C31.1795 3.18192 31.1487 3.24068 31.1443 3.25424L31.1047 3.33107H28.9815V2.08362H28.9771C28.9508 0.768362 28.1947 0.0451977 27.1001 0.0451977H26.9726H26.0319C25.9879 0.366102 25.9528 0.59209 25.9088 0.912994H26.9726C27.5309 0.912994 27.8254 1.40113 27.8254 2.15141V3.40791L27.7507 3.36723C27.7375 3.36271 27.6452 3.33107 27.5001 3.33107H25.6626C25.6275 3.57062 25.5835 3.88249 25.5352 4.19435H31.1839C31.3773 4.15367 31.6015 4.11751 31.7949 4.08588C32.0806 4.23051 32.6125 4.30734 32.9774 4.30734C34.2038 4.30734 34.9995 3.46215 34.9995 2.16045C34.9951 0.872316 34.2258 0.0271186 33.0301 0Z" fill="#0A0A0A"/>
<path d="M23.127 4.72325H23.1798C24.4062 4.72325 24.9777 4.30743 24.9777 3.28144C24.9777 2.54472 24.4546 1.95715 23.5754 1.95715H22.4456C22.1072 1.95715 21.9049 1.75828 21.9049 1.42382C21.9049 1.19783 21.9885 0.917601 22.5423 0.917601H25.0128C25.0656 0.587658 25.092 0.379748 25.1403 0.0498047H22.5731C21.3774 0.0498047 20.7752 0.565059 20.7752 1.42382C20.7752 2.27353 21.2983 2.71647 22.1775 2.71647H23.3072C23.6457 2.71647 23.8479 2.99218 23.8479 3.28144C23.8479 3.47127 23.7644 3.86449 23.2149 3.86449H23.0259L19.4081 3.85545H18.7487C18.1904 3.85545 17.7992 3.53003 17.7992 2.77523V2.25545C17.7992 1.46901 18.1025 0.980878 18.7487 0.980878H19.8213C19.8697 0.646415 19.9004 0.433985 19.9444 0.117601H18.608H18.4806C17.386 0.117601 16.6299 0.872404 16.6035 2.18766V2.23738V2.77523C16.6299 4.09048 17.386 4.71873 18.4806 4.71873H18.608H19.5488L21.5093 4.72325H22.6786H23.127Z" fill="#0A0A0A"/>
</svg>
