<svg width="48" height="19" viewBox="0 0 48 19" fill="none" xmlns="http://www.w3.org/2000/svg">
<path d="M41.815 19H6.18496C2.75216 19 0 16.3303 0 13.0643V5.93573C0 2.64126 2.78175 0 6.18496 0H41.815C45.2478 0 48 2.66966 48 5.93573V13.0643C48 16.3303 45.2478 19 41.815 19Z" fill="#5AFEAE"/>
<path d="M39.3476 6.12166L36.8881 15.5149V15.5445H38.8142L41.2736 6.15129H39.3476V6.12166ZM8.94557 11.4553C8.64926 11.6035 8.35294 11.6628 8.027 11.6628C7.34547 11.6628 6.96026 11.5442 6.901 10.9812V10.9516C6.901 10.922 6.901 10.922 6.901 10.8923V9.2626V9.08481V7.92918V7.45508V7.27729V6.18092L5.18236 6.38834C6.338 6.15129 6.98989 5.26234 6.98989 4.34376V3.78076H5.06384V6.41797L4.94531 6.4476V11.3072C5.00458 12.6702 5.92315 13.4999 7.3751 13.4999C7.90847 13.4999 8.47147 13.3814 8.91594 13.174L8.94557 11.4553Z" fill="#292929"/>
<path d="M9.24158 5.76599L3.84863 6.59568V7.95873L9.24158 7.12905V5.76599ZM9.24158 7.78094L3.84863 8.61062V9.91441L9.24158 9.08473V7.78094ZM15.2864 8.4032C15.1975 6.89199 14.2493 5.97341 12.7085 5.97341C11.8195 5.97341 11.0787 6.32899 10.575 6.98089C10.0713 7.63278 9.80458 8.58099 9.80458 9.73662C9.80458 10.8923 10.0713 11.8405 10.575 12.4924C11.0787 13.1443 11.8195 13.4702 12.7085 13.4702C14.2493 13.4702 15.1975 12.5813 15.2864 11.0404V13.322H17.2125V6.1512L15.2864 6.44752V8.4032ZM15.4049 9.73662C15.4049 11.07 14.6938 11.959 13.5974 11.959C12.4714 11.959 11.7899 11.1293 11.7899 9.73662C11.7899 8.34394 12.4714 7.51426 13.5974 7.51426C14.1308 7.51426 14.6049 7.72168 14.9308 8.13652C15.2272 8.52173 15.4049 9.08473 15.4049 9.73662ZM22.8128 5.97341C21.272 5.97341 20.3238 6.86236 20.2349 8.4032V4.04736L18.3088 4.34368V13.322H20.2349V11.0404C20.3238 12.5813 21.272 13.4702 22.8128 13.4702C24.6204 13.4702 25.7167 12.0775 25.7167 9.73662C25.7167 7.39573 24.6204 5.97341 22.8128 5.97341ZM21.9535 11.959C20.8572 11.959 20.146 11.0997 20.146 9.73662C20.146 9.08473 20.3238 8.52173 20.6201 8.13652C20.946 7.72168 21.3905 7.51426 21.9535 7.51426C23.0795 7.51426 23.761 8.34394 23.761 9.73662C23.761 11.1293 23.0795 11.959 21.9535 11.959ZM30.9319 5.97341C29.391 5.97341 28.4428 6.86236 28.3539 8.4032V4.04736L26.4279 4.34368V13.322H28.3539V11.0404C28.4428 12.5813 29.391 13.4702 30.9319 13.4702C32.7394 13.4702 33.8358 12.0775 33.8358 9.73662C33.8358 7.39573 32.7394 5.97341 30.9319 5.97341ZM30.0726 11.959C28.9762 11.959 28.265 11.0997 28.265 9.73662C28.265 9.08473 28.4428 8.52173 28.7391 8.13652C29.0651 7.72168 29.5096 7.51426 30.0726 7.51426C31.1986 7.51426 31.8801 8.34394 31.8801 9.73662C31.8801 11.1293 31.1986 11.959 30.0726 11.959ZM33.8358 6.12157H35.8804L37.5397 13.322H35.7026L33.8358 6.12157ZM42.8438 6.86236V6.29936H42.6067V6.18084H43.229V6.29936H42.9919V6.86236H42.8438ZM43.2586 6.86236V6.1512H43.4957L43.6142 6.47715C43.6438 6.56605 43.6735 6.59568 43.6735 6.62531C43.6735 6.59568 43.7031 6.56605 43.7327 6.47715L43.8512 6.1512H44.0883V6.86236H43.9401V6.29936L43.7327 6.86236H43.5846L43.4068 6.29936V6.86236H43.2586Z" fill="#292929"/>
</svg>
