<svg width="36" height="12" viewBox="0 0 36 12" fill="none" xmlns="http://www.w3.org/2000/svg">
<g clip-path="url(#clip0_128_1757)">
<path d="M15.5998 11.8268H12.6836L14.5076 0.210449H17.4237L15.5998 11.8268Z" fill="#00579F"/>
<path d="M26.1718 0.494553C25.5966 0.259513 24.6842 0 23.5561 0C20.6762 0 18.6482 1.58171 18.6358 3.84309C18.6119 5.51153 20.0878 6.43822 21.1917 6.99453C22.3199 7.56299 22.7034 7.93403 22.7034 8.44074C22.692 9.21895 21.7917 9.57767 20.9521 9.57767C19.7878 9.57767 19.164 9.39272 18.2159 8.95976L17.8319 8.77416L17.4238 11.3818C18.1078 11.7027 19.3679 11.9875 20.6762 12C23.7362 12 25.7283 10.4428 25.7519 8.03291C25.7635 6.71054 24.9842 5.69729 23.304 4.86931C22.284 4.33781 21.6594 3.97942 21.6594 3.43559C21.6713 2.9412 22.1877 2.43482 23.3391 2.43482C24.2872 2.41002 24.9837 2.64473 25.5114 2.87961L25.7752 3.00296L26.1718 0.494553Z" fill="#00579F"/>
<path d="M30.0481 7.71152C30.2882 7.04418 31.2124 4.46137 31.2124 4.46137C31.2002 4.48617 31.452 3.78171 31.596 3.34924L31.7998 4.35017C31.7998 4.35017 32.3521 7.13074 32.472 7.71152C32.0162 7.71152 30.6241 7.71152 30.0481 7.71152ZM33.6478 0.210449H31.3921C30.6965 0.210449 30.168 0.420359 29.8679 1.17426L25.5361 11.8266H28.5961C28.5961 11.8266 29.0998 10.3929 29.2081 10.0841C29.5438 10.0841 32.5205 10.0841 32.9523 10.0841C33.0361 10.4919 33.3003 11.8266 33.3003 11.8266H36.0005L33.6478 0.210449Z" fill="#00579F"/>
<path d="M10.2478 0.210449L7.39185 8.13167L7.07976 6.52515C6.55175 4.67144 4.89581 2.65742 3.04785 1.656L5.66382 11.8144H8.74768L13.3315 0.210449H10.2478Z" fill="#00579F"/>
<path d="M4.73997 0.210449H0.0480007L0 0.44516C3.66003 1.40914 6.08399 3.73276 7.07989 6.52564L6.05991 1.18691C5.89199 0.444996 5.37594 0.234922 4.73997 0.210449Z" fill="#FFA412"/>
</g>
<defs>
<clipPath id="clip0_128_1757">
<rect width="36" height="12" fill="white"/>
</clipPath>
</defs>
</svg>
